<?xml version="1.0" standalone="no"?>
<!DOCTYPE svg PUBLIC "-//W3C//DTD SVG 20010904//EN"
 "http://www.w3.org/TR/2001/REC-SVG-20010904/DTD/svg10.dtd">
<svg version="1.0" xmlns="http://www.w3.org/2000/svg"
 width="920.000000pt" height="981.000000pt" viewBox="0 0 920.000000 981.000000"
 preserveAspectRatio="xMidYMid meet">
<metadata>
Created by potrace 1.16, written by Peter Selinger 2001-2019
</metadata>
<g transform="translate(0.000000,981.000000) scale(0.100000,-0.100000)"
fill="#000000" stroke="none">
<path d="M4445 9804 c-16 -2 -79 -9 -140 -15 -502 -48 -930 -192 -1328 -447
-269 -172 -541 -408 -734 -637 -243 -289 -452 -682 -563 -1060 -302 -1034
-135 -2020 481 -2845 221 -296 396 -468 686 -673 56 -40 99 -75 95 -79 -4 -3
-71 -34 -150 -67 -542 -232 -1003 -549 -1427 -982 -535 -547 -915 -1232 -1089
-1959 -72 -302 -112 -557 -102 -659 12 -132 104 -265 220 -320 127 -61 235
-61 361 0 69 33 99 58 148 122 60 78 72 130 72 312 1 149 3 171 39 320 98 416
256 783 479 1115 592 882 1421 1418 2457 1589 718 118 1378 54 2020 -196 167
-65 454 -209 610 -305 586 -362 1044 -873 1345 -1502 165 -343 260 -671 300
-1036 19 -170 28 -211 60 -266 75 -129 265 -215 412 -185 158 31 268 136 317
300 9 30 16 72 16 94 0 57 -84 484 -130 663 -282 1091 -987 2032 -1965 2619
-172 103 -415 226 -587 296 -59 24 -108 47 -108 50 0 3 42 35 93 71 298 210
583 499 775 785 292 436 458 889 524 1433 20 161 16 604 -6 765 -58 426 -183
799 -386 1150 -423 736 -1023 1207 -1825 1433 -164 47 -254 63 -543 97 -190
22 -338 29 -427 19z m470 -778 c533 -78 1026 -332 1389 -718 336 -356 546
-786 623 -1278 14 -87 18 -170 17 -345 0 -255 -16 -384 -75 -605 -217 -818
-870 -1464 -1693 -1675 -959 -246 -1979 141 -2535 960 -478 703 -541 1597
-167 2360 146 298 342 550 589 759 377 317 826 507 1317 556 115 12 412 4 535
-14z"/>
</g>
</svg>
